<svg xmlns="http://www.w3.org/2000/svg" id="Capa_1" data-name="Capa 1" viewBox="0 0 1169.74 324"><defs><style>      .cls-1 {        fill: #a8a7a9;      }      .cls-1, .cls-2, .cls-3, .cls-4 {        stroke-width: 0px;      }      .cls-5 {        font-family: MonotypeCorsiva, 'Monotype Corsiva';        font-size: 74.38px;      }      .cls-5, .cls-4 {        fill: #064d8d;      }      .cls-2 {        fill: #a7a6a6;      }      .cls-3 {        fill: #a4a4a4;      }    </style></defs><polygon class="cls-3" points="9.74 261.65 17.74 249.62 1169.74 249.13 1167.26 257.6 1162.97 262.89 277.54 262.83 9.74 261.65"></polygon><path class="cls-4" d="M279.05,160.02c11.46-14.52,22.37-28.59,33.55-42.45,17.63-21.86,35.49-43.57,57.16-61.65,13.5-11.26,27.72-21.39,45.89-23.89,14.08-1.94,25.5,3.72,32.23,16.4,5.86,11.03,8.02,23.12,8.65,35.32,1.98,38.33-3.7,75.58-16.97,111.63-.31.85-.67,1.68-1.06,2.5-.12.26-.44.42-.84.76,3.17-12.48,6.57-24.72,9.36-37.1,5.88-26.04,8.1-52.24,1.28-78.48-1.27-4.87-3.18-9.76-5.76-14.07-7.01-11.72-16.67-14.84-29.48-9.88-15.47,5.99-27.66,16.73-39.34,28.03-28.54,27.64-52.47,59.04-74.61,91.9-8.75,12.99-17.84,25.77-26.76,38.65-1.12,1.62-2.15,3.29-3.64,5.56,28.75-1.5,56.79-3.4,84.86-4.29,28.28-.9,56.38,1.22,83.9,8.9-10.01.71-20.05,1.05-30.01,2.21-21.53,2.51-43.02,5.29-64.5,8.23-28.89,3.96-57.71,8.45-87,8.44-2.49,0-5.12,1.83-7.43,3.23-2.47,1.49-4.45,3.81-6.96,5.18-6.38,3.47-11.83.92-12.55-6.3-.46-4.63-3.46-4.53-6.38-5.01-17.28-2.83-33.46-8.5-48.26-18-5.07-3.25-7.46-8.08-9.1-12.5,10.93,3.16,21.99,7.07,33.36,9.41,8.85,1.82,18.12,1.58,27.18,2.45,3.51.34,4.76-.97,5.18-4.41,2.25-18.44,4.99-36.83,7.04-55.3,2.37-21.37,4.32-42.8,6.21-64.22.84-9.55,1.11-19.14,1.76-30.69-8.74,3.78-16.27,6.4-23.19,10.14-23.95,12.93-42.81,31.96-60.74,51.97-24.85,27.73-47.13,57.45-67.85,88.35-2.19,3.26-4.42,4.61-8.36,4.59-20.07-.12-40.14.06-60.2.14-1.02,0-2.04,0-4.18,0,6.26-9.42,11.77-18.14,17.71-26.57,26.66-37.87,53.96-75.25,87.14-107.84,28.85-28.34,60.03-53.69,96.22-72.27,10.58-5.43,21.63-9.53,33.73-10.21,17.69-.99,30.12,8.24,34.2,25.55,3.53,14.97,3.41,30.18,1.26,45.13-3.79,26.29-8.78,52.41-13.24,78.61-.05.31.19.67.56,1.83Z"></path><g><path class="cls-4" d="M1040.76,132.15h17.73c-3.8,11.26-7.52,22.22-11.2,33.19-4.51,13.45-9.02,26.89-13.44,40.37-.67,2.05-1.15,4.26-1.19,6.4-.03,1.66.46,4.56,1.24,4.76,1.88.46,4.65.35,6.03-.78,3.91-3.23,7.22-7.17,10.94-10.64,1.01-.94,2.64-1.23,4.46-1.01-6.3,10.34-14.07,18.77-25.43,22.96-2.3.85-5.03.87-7.54.78-6.55-.24-10.02-4.06-8.35-10.43,3.25-12.47,7.26-24.74,10.95-37.09.29-.98.54-1.97-.07-3.43-2.53,3.41-5.02,6.86-7.6,10.23-10.32,13.47-20.62,27.11-35.76,35.55-5.05,2.82-11.17,4.58-16.94,5.04-9.57.76-15.12-5.48-13.06-14.78,2.79-12.57,6.59-24.92,10.22-37.29,2.72-9.25,6.04-18.32,8.69-27.58.59-2.06.15-6.12-.97-6.6-2.02-.87-5.48-.56-7.31.72-3.52,2.47-6.21,6.09-9.48,8.96-1.14,1.01-2.97,1.23-4.81,1.09,6.82-10.15,14.98-18.25,26.67-21.83,1.72-.52,3.54-.88,5.33-.95,9.01-.35,12.92,4.15,10.73,12.99-1.97,7.93-4.53,15.72-7.03,23.51-4.33,13.51-8.95,26.94-13.19,40.48-2.35,7.49,1.43,11.65,8.61,8.77,6.23-2.5,12.37-6.2,17.34-10.71,20.83-18.89,35.1-42.07,43.05-69.09.35-1.2.89-2.34,1.36-3.57Z"></path><path class="cls-4" d="M625.47,129.69c-5.44,15.98-10.68,31.36-15.92,46.74.3.19.61.39.91.58,1.89-2.26,3.7-4.58,5.68-6.75,9.06-9.95,17.79-20.25,27.39-29.67,7.15-7.01,16.03-11.34,26.57-10.88,8.03.36,13.3,4.92,12.12,12.77-1.47,9.79-4.39,19.42-7.27,28.94-3.99,13.23-8.62,26.27-12.71,39.47-.53,1.72-.15,4.94.95,5.63,1.33.83,4.4.37,5.81-.72,4.16-3.2,7.81-7.06,11.8-10.5,1.13-.98,2.73-1.41,4.63-1.27-7.37,9.7-15.03,18.9-26.83,23.01-2.66.93-5.71,1.24-8.54,1.08-5.72-.32-9.04-4.76-7.4-10.92,3-11.22,6.72-22.26,10.16-33.36,3.44-11.11,7.42-22.08,10.18-33.35,1.95-7.97-2.62-11.23-10.41-7.99-12.36,5.14-21.06,14.76-29.09,24.99-12.56,16.01-23.04,33.21-28.57,53-1.19,4.25-3.22,5.94-7.69,5.41-3.76-.44-7.62-.09-11.95-.09,4.67-13.99,9.21-27.58,13.74-41.17,3.8-11.39,7.61-22.78,11.38-34.18,2.97-8.99.08-12.64-9.56-12.15-2.12.11-4.23.38-7.06-.45.79-.74,1.5-1.99,2.38-2.13,12.9-2.07,25.83-3.99,39.29-6.02Z"></path><path class="cls-4" d="M509.48,228.43c-18.18-.23-31.02-5.11-38.26-19.39-5.92-11.68-3.29-23.52,1.64-34.81,11.64-26.67,40.49-44.97,69.61-44.52,24.73.39,39.6,19.28,34,43.45-6.59,28.49-25.71,44.68-52.73,52.7-5.52,1.64-11.4,2.07-14.26,2.56ZM557.75,160.28c.26-20.34-12.07-29.84-28.45-24.86-3.26.99-6.71,2.29-9.31,4.39-20.4,16.44-31.78,37.69-32.26,64.07-.2,11.17,8.68,19.36,19.9,19.94,8.09.42,15.24-2.3,21.11-7.49,17.74-15.68,27.33-35.52,29.01-56.05Z"></path><path class="cls-4" d="M842.22,203.88c-16.42,13.24-33.66,24.06-56.06,24.55-25.12.55-42.55-20.68-32.6-47.34,12.13-32.51,44.54-53.69,79.05-51.22.55.04,1.1.03,1.63.13,6.82,1.27,13.64,3.24,16.21,10.39,2.65,7.37-.21,14.01-5.52,19.43-13.1,13.37-29.92,18.89-47.72,22.13-6.98,1.27-14.03,2.18-21.08,2.98-2.91.33-3.77,1.52-4.28,4.37-3.25,18.36,13.45,29.88,29.2,28.78,13.28-.93,24.22-7.18,34.98-14.13,1.62-1.05,3.58-1.6,5.37-2.38.27.78.54,1.55.81,2.33ZM773.94,181.07c6.76-1.13,13.44-1.79,19.86-3.42,14.53-3.68,27.91-9.57,36.9-22.41,3.39-4.84,5.35-10.35,2.13-15.82-3.45-5.89-9.56-6.13-15.54-5.16-19.75,3.21-40.86,25.78-43.37,46.82Z"></path><path class="cls-4" d="M859.2,194.19c1.02,4.82,1.64,8.97,2.78,12.97,4.73,16.59,28.25,23.24,41.21,11.73,5.44-4.83,7.16-12.15,3.08-18.27-4.42-6.62-9.81-12.61-14.93-18.75-3.03-3.63-6.47-6.91-9.54-10.52-6.38-7.52-10.23-16.06-5.88-25.67,4.6-10.16,13.56-15.35,24.45-15.69,6.95-.21,14.12,1.01,20.89,2.75,5.98,1.53,11.25,2.93,16.13-2.24.77-.81,2.54-.68,4.8-1.21-2.45,10.58-4.65,20.26-7.02,29.9-.22.91-1.6,1.54-2.45,2.29-.75-.87-1.9-1.63-2.18-2.63-1.03-3.65-1.3-7.57-2.7-11.05-4.36-10.83-16.41-16.26-27.5-12.75-10.13,3.21-13.46,12.89-6.69,21.06,4.98,6.01,11.02,11.13,16.33,16.89,3.81,4.14,7.68,8.37,10.68,13.1,8.36,13.14,5.37,26.22-7.52,35.11-10.59,7.31-22.41,8.06-34.6,6.29-3.76-.55-7.46-1.69-11.12-2.77-5.33-1.57-10.35-2.31-14.48,2.71-.6.73-2.22.63-4.52,1.21,2.69-11.8,5.13-22.72,7.76-33.59.12-.49,1.86-.58,3.02-.91Z"></path><path class="cls-4" d="M721.98,138.26h-17.04c-.27-.42-.53-.84-.8-1.26,1-.99,1.84-2.61,3.01-2.88,16.55-3.91,28.36-14.18,38.05-27.57,1.36-1.88,4.04-2.81,6.11-4.18.33.46.66.92.99,1.38-3.01,9.09-6.02,18.18-9.27,28.02h18.44c.46,4.89-1.1,6.83-5.82,6.49-4.68-.34-10.59-1.46-13.8.81-3.17,2.25-3.76,8.27-5.25,12.72-6.54,19.48-13.1,38.96-19.34,58.54-.75,2.36.42,5.33.69,8.02,2.72-.5,6.03-.19,8.03-1.67,4.65-3.43,8.59-7.83,13.01-11.6,1.26-1.07,3.19-1.35,5.21-1.2-6.76,9.7-14.29,18.19-25.24,22.67-2.14.88-4.53,1.42-6.84,1.58-11.24.79-16.42-5.31-13.52-16.23,1.96-7.37,4.46-14.6,6.85-21.85,5.36-16.23,10.81-32.43,16.19-48.65.27-.82.21-1.75.35-3.12Z"></path><path class="cls-4" d="M1082.52,225.62h-17.66c3.59-10.47,7.16-20.68,10.6-30.94,5.04-15,10.17-29.98,14.92-45.07,2.83-8.98.22-11.92-9.4-11.62-1.82.06-3.65.36-5.46.23-.96-.07-1.87-.81-2.81-1.25.06-.53.13-1.05.19-1.58,13.53-1.88,27.06-3.76,41.59-5.77-5.9,16.94-11.59,33.24-17.27,49.54l.99.58c2.94-3.97,5.85-7.96,8.84-11.9,9.49-12.54,19.56-24.59,33.01-33.09,3.99-2.52,8.91-4.18,13.6-4.81,5.37-.72,8.73,3.26,7.77,8.59-.73,4.04-1.83,8.42-4.16,11.64-1.84,2.53-5.67,4.48-8.87,4.92-3.48.48-5.53-2.52-6.4-6.19-1.03-4.35-4.46-4.96-7.61-2.73-4.43,3.13-8.69,6.66-12.41,10.59-18.14,19.19-32.26,40.77-38.69,66.78-.17.67-.48,1.31-.77,2.08Z"></path></g><polygon class="cls-1" points="708.25 314.34 695.25 307.9 682.57 314.96 684.68 300.6 674.04 290.72 688.35 288.29 694.46 275.12 701.2 287.98 715.61 289.72 705.46 300.1 708.25 314.34"></polygon><polygon class="cls-1" points="818.88 315.01 805.87 308.56 793.19 315.62 795.3 301.26 784.67 291.38 798.98 288.95 805.09 275.79 811.82 288.64 826.23 290.39 816.08 300.76 818.88 315.01"></polygon><polygon class="cls-1" points="929.71 314.32 916.7 307.88 904.02 314.93 906.13 300.57 895.5 290.69 909.81 288.26 915.92 275.1 922.65 287.96 937.06 289.7 926.91 300.08 929.71 314.32"></polygon><polygon class="cls-1" points="1040.45 314.93 1027.45 308.48 1014.77 315.54 1016.88 301.18 1006.24 291.3 1020.55 288.87 1026.66 275.71 1033.4 288.57 1047.81 290.31 1037.66 300.69 1040.45 314.93"></polygon><polygon class="cls-1" points="1152.31 314.32 1139.3 307.88 1126.62 314.93 1128.73 300.57 1118.1 290.69 1132.41 288.26 1138.52 275.1 1145.25 287.96 1159.66 289.7 1149.51 300.08 1152.31 314.32"></polygon><polygon class="cls-2" points="709.82 92.62 719.71 79.92 1164.3 79.92 1155.19 93.67 709.82 92.62"></polygon><text class="cls-5" transform="translate(500.34 97.42)"><tspan x="0" y="0">Clínica</tspan></text></svg>