<?xml version="1.0" encoding="UTF-8"?>
<svg id="Capa_1" data-name="Capa 1" xmlns="http://www.w3.org/2000/svg" xmlns:xlink="http://www.w3.org/1999/xlink" viewBox="0 0 6307.41 2257.92">
  <defs>
    <style>
      .cls-1 {
        letter-spacing: -.28em;
      }

      .cls-2 {
        fill: url(#Degradado_sin_nombre_19);
      }

      .cls-2, .cls-3, .cls-4, .cls-5, .cls-6, .cls-7 {
        stroke-width: 0px;
      }

      .cls-8 {
        letter-spacing: -.04em;
      }

      .cls-9 {
        letter-spacing: -.02em;
      }

      .cls-3 {
        fill: url(#Degradado_sin_nombre_4-2);
      }

      .cls-4 {
        fill: url(#Degradado_sin_nombre_21);
      }

      .cls-10 {
        letter-spacing: -.04em;
      }

      .cls-11 {
        letter-spacing: -.02em;
      }

      .cls-5 {
        fill: #fff;
      }

      .cls-12 {
        fill: #2954a0;
        font-family: FONTSPRINGDEMO-CeraRoundProBold, 'FONTSPRING DEMO - Cera Round Pro';
        font-size: 1096.73px;
        font-weight: 700;
      }

      .cls-6 {
        fill: url(#Degradado_sin_nombre_4);
      }

      .cls-7 {
        fill: url(#Degradado_sin_nombre_24);
      }

      .cls-13 {
        letter-spacing: -.02em;
      }

      .cls-14 {
        opacity: .25;
      }

      .cls-15 {
        fill: #0393a6;
        font-family: FONTSPRINGDEMO-CeraRoundProRegular, 'FONTSPRING DEMO - Cera Round Pro';
        font-size: 947.71px;
      }
    </style>
    <linearGradient id="Degradado_sin_nombre_4" data-name="Degradado sin nombre 4" x1="1054.46" y1="1110.95" x2="1818.73" y2="1110.95" gradientUnits="userSpaceOnUse">
      <stop offset="0" stop-color="#009a87"/>
      <stop offset=".99" stop-color="#1266ac"/>
    </linearGradient>
    <linearGradient id="Degradado_sin_nombre_19" data-name="Degradado sin nombre 19" x1="262.3" y1="1507.03" x2="1818.73" y2="1507.03" gradientTransform="translate(2547.54 466.51) rotate(90)" gradientUnits="userSpaceOnUse">
      <stop offset=".39" stop-color="#009a87"/>
      <stop offset=".55" stop-color="#02918c"/>
      <stop offset=".8" stop-color="#0a7b9c"/>
      <stop offset=".99" stop-color="#1266ac"/>
    </linearGradient>
    <linearGradient id="Degradado_sin_nombre_24" data-name="Degradado sin nombre 24" x1="8235.55" y1="3516.94" x2="8241.18" y2="3120.53" gradientTransform="translate(4633.5 -6629.36) rotate(90)" gradientUnits="userSpaceOnUse">
      <stop offset="0" stop-color="#009a87"/>
      <stop offset=".54" stop-color="#009888"/>
      <stop offset=".74" stop-color="#00918f"/>
      <stop offset=".87" stop-color="#00859b"/>
      <stop offset=".99" stop-color="#0074ac"/>
      <stop offset="1" stop-color="#0072af"/>
    </linearGradient>
    <linearGradient id="Degradado_sin_nombre_21" data-name="Degradado sin nombre 21" x1="8015.42" y1="3232.82" x2="8022.08" y2="2836.42" gradientTransform="translate(4633.5 -6629.36) rotate(90)" gradientUnits="userSpaceOnUse">
      <stop offset="0" stop-color="#009a87"/>
      <stop offset=".05" stop-color="#02928c"/>
      <stop offset=".21" stop-color="#097e9a"/>
      <stop offset=".39" stop-color="#0e70a4"/>
      <stop offset=".61" stop-color="#1168aa"/>
      <stop offset="1" stop-color="#1266ac"/>
    </linearGradient>
    <linearGradient id="Degradado_sin_nombre_4-2" data-name="Degradado sin nombre 4" x1="7898.75" y1="3191.61" x2="7896.17" y2="3034.09" gradientTransform="translate(4633.5 -6629.36) rotate(90)" xlink:href="#Degradado_sin_nombre_4"/>
  </defs>
  <g>
    <path class="cls-6" d="m1426.79,332.74h24.08c203.02,0,367.85,164.83,367.85,367.85v1188.57h-496.84c-147.59,0-267.42-119.83-267.42-267.42v-916.67c0-205.49,166.84-372.33,372.33-372.33Z"/>
    <path class="cls-2" d="m1047.34,728.82h0c207.13,0,375.3,168.17,375.3,375.3v901.66c0,154.24-125.22,279.46-279.46,279.46h-484.8v-1167.46c0-214.67,174.29-388.96,388.96-388.96Z" transform="translate(-466.51 2547.54) rotate(-90)"/>
  </g>
  <rect class="cls-5" x="1062.23" y="1132.6" width="732.09" height="732.09"/>
  <g>
    <path class="cls-7" d="m1433.15,1808.91c-47.6,0-86.18-38.59-86.18-86.18v-137.9s-137.9,0-137.9,0c-47.6,0-86.19-38.59-86.19-86.18,0-47.6,38.59-86.19,86.19-86.19h224.08c47.6,0,86.19,38.59,86.19,86.19v224.08c0,47.6-38.59,86.18-86.19,86.18Z"/>
    <path class="cls-4" d="m1657.23,1584.83h-224.08c-47.6,0-86.18-38.59-86.18-86.19v-224.08c0-47.6,38.59-86.19,86.18-86.19,47.6,0,86.19,38.59,86.19,86.19v137.9s137.9,0,137.9,0c47.6,0,86.19,38.59,86.19,86.19,0,47.6-38.59,86.18-86.19,86.18Z"/>
    <g class="cls-14">
      <path class="cls-3" d="m1519.34,1274.56c0-47.6-38.59-86.19-86.19-86.19-29.7,0-55.89,15.03-71.39,37.89,56.04,36.37,108.71,77.64,157.58,123.03v-74.73Z"/>
    </g>
  </g>
  <text class="cls-15" transform="translate(1965.1 1883.67) scale(.99 1)"><tspan class="cls-8" x="0" y="0">R</tspan><tspan class="cls-11" x="555.35" y="0">e</tspan><tspan class="cls-1" x="1076.59" y="0"> </tspan><tspan class="cls-11" x="1076.59" y="0">d</tspan></text>
  <text class="cls-12" transform="translate(3612.62 1893.58) scale(.99 1)"><tspan class="cls-9" x="0" y="0">Sal</tspan><tspan class="cls-10" x="1436.7" y="0">v</tspan><tspan class="cls-13" x="2004.81" y="0">a</tspan></text>
</svg>